<svg width="89" height="83" viewBox="0 0 89 83" fill="none" xmlns="http://www.w3.org/2000/svg">
<path d="M51.1764 82.181C56.0549 82.181 60.8856 81.278 65.3928 79.5237C69.8999 77.7693 73.9952 75.1979 77.4448 71.9563C80.8944 68.7147 83.6308 64.8664 85.4977 60.631C87.3646 56.3956 88.3255 51.8562 88.3255 47.2719L51.1764 47.2719L51.1764 82.181Z" fill="#00E1F0"/>
<path opacity="0.1" d="M28.7325 54C32.5057 54 36.242 53.3016 39.728 51.9447C43.2139 50.5879 46.3814 48.5991 49.0494 46.0919C51.7175 43.5847 53.8339 40.6082 55.2779 37.3325C56.7218 34.0567 57.465 30.5457 57.465 27L28.7325 27L28.7325 54Z" fill="#E8F2FF"/>
</svg>
