<svg width="18" height="101" viewBox="0 0 18 101" fill="none" xmlns="http://www.w3.org/2000/svg">
<path d="M12.8483 96.4003L4.33496 87.6003L12.8483 79.6003L5.61196 72.8003L12.8483 66.0003L5.61196 59.2003L12.8483 52.4003L5.61196 45.6002L12.8483 38.8002L5.61196 32.0002L12.8483 25.2002L5.61196 18.4002L12.8483 11.6002L5.61196 4.80017" stroke="#E6EFFF" stroke-width="2" stroke-linecap="round" stroke-linejoin="round"/>
<path d="M6.03867 1.00002C8.36696 1.00002 10.1467 2.75902 10.1467 4.80003C10.1467 6.84104 8.36696 8.60004 6.03867 8.60004C3.71038 8.60004 1.93066 6.84104 1.93066 4.80003C1.93066 2.75902 3.71038 1.00002 6.03867 1.00002Z" fill="#002F86" stroke="white" stroke-width="2"/>
<path d="M12.8502 92.2002C15.1785 92.2002 16.9582 93.9592 16.9582 96.0002C16.9582 98.0412 15.1785 99.8002 12.8502 99.8002C10.5219 99.8002 8.74219 98.0412 8.74219 96.0002C8.74219 93.9592 10.5219 92.2002 12.8502 92.2002Z" fill="#002F86" stroke="white" stroke-width="2"/>
</svg>
