<svg width="172" height="160" viewBox="0 0 172 160" fill="none" xmlns="http://www.w3.org/2000/svg">
<path opacity="0.4" d="M99.6286 159.413C109.092 159.413 118.462 157.662 127.205 154.259C135.948 150.855 143.891 145.868 150.583 139.58C157.274 133.292 162.582 125.827 166.204 117.611C169.825 109.396 171.689 100.59 171.689 91.6979L99.6286 91.6979L99.6286 159.413Z" fill="#FDBC64"/>
<path opacity="0.3" d="M56.0934 104.747C63.4126 104.747 70.66 103.392 77.422 100.76C84.1839 98.1283 90.328 94.2705 95.5034 89.4072C100.679 84.5439 104.784 78.7703 107.585 72.416C110.386 66.0618 111.828 59.2514 111.828 52.3736L56.0935 52.3736L56.0934 104.747Z" fill="#E8F2FF"/>
</svg>
