<svg width="113" height="17" viewBox="0 0 113 17" fill="none" xmlns="http://www.w3.org/2000/svg">
<path d="M5.56836 11.6668L15.3232 3.3335L24.1913 11.6668L31.7291 4.5835L39.267 11.6668L46.8048 4.5835L54.3427 11.6668L61.8805 4.5835L69.4184 11.6668L76.9562 4.5835L84.4941 11.6668L92.0319 4.5835L99.5697 11.6668L107.108 4.5835" stroke="#E6EFFF" stroke-width="2" stroke-linecap="round" stroke-linejoin="round"/>
<path d="M111.428 5C111.428 7.15146 109.553 9 107.107 9C104.661 9 102.786 7.15146 102.786 5C102.786 2.84854 104.661 1 107.107 1C109.553 1 111.428 2.84854 111.428 5Z" fill="#002F86" stroke="white" stroke-width="2"/>
<path d="M10.3321 11.6665C10.3321 13.818 8.45709 15.6665 6.01126 15.6665C3.56543 15.6665 1.69043 13.818 1.69043 11.6665C1.69043 9.51504 3.56543 7.6665 6.01126 7.6665C8.45709 7.6665 10.3321 9.51504 10.3321 11.6665Z" fill="#002F86" stroke="white" stroke-width="2"/>
</svg>
