<svg width="222" height="197" viewBox="0 0 222 197" fill="none" xmlns="http://www.w3.org/2000/svg">
<path d="M146 -3.32207e-06C155.98 -3.75833e-06 165.863 1.9658 175.084 5.78515C184.305 9.6045 192.683 15.2026 199.74 22.2599C206.797 29.3171 212.395 37.6953 216.215 46.9161C220.034 56.1368 222 66.0195 222 76L146 76L146 -3.32207e-06Z" fill="#E8F2FF"/>
<path d="M73 51C82.5865 51 92.0791 52.8882 100.936 56.5568C109.793 60.2254 117.84 65.6025 124.619 72.3812C131.397 79.1599 136.775 87.2073 140.443 96.0641C144.112 104.921 146 114.413 146 124L73 124L73 51Z" fill="#E8F2FF"/>
</svg>
