<svg width="158" height="100" viewBox="0 0 158 100" fill="none" xmlns="http://www.w3.org/2000/svg">
<g opacity="0.3">
<path d="M0 0H4.25667V4H0V0Z" fill="#C4C4C4"/>
<path d="M25.54 0H29.7967V4H25.54V0Z" fill="#C4C4C4"/>
<path d="M51.08 0H55.3367V4H51.08V0Z" fill="#C4C4C4"/>
<path d="M76.62 0H80.8767V4H76.62V0Z" fill="#C4C4C4"/>
<path d="M102.16 0H106.417V4H102.16V0Z" fill="#C4C4C4"/>
<path d="M127.7 0H131.957V4H127.7V0Z" fill="#C4C4C4"/>
<path d="M153.24 0H157.497V4H153.24V0Z" fill="#C4C4C4"/>
<path d="M0 24H4.25667V28H0V24Z" fill="#C4C4C4"/>
<path d="M25.54 24H29.7967V28H25.54V24Z" fill="#C4C4C4"/>
<path d="M51.08 24H55.3367V28H51.08V24Z" fill="#C4C4C4"/>
<path d="M76.62 24H80.8767V28H76.62V24Z" fill="#C4C4C4"/>
<path d="M102.16 24H106.417V28H102.16V24Z" fill="#C4C4C4"/>
<path d="M127.7 24H131.957V28H127.7V24Z" fill="#C4C4C4"/>
<path d="M153.24 24H157.497V28H153.24V24Z" fill="#C4C4C4"/>
<path d="M0 48H4.25667V52H0V48Z" fill="#C4C4C4"/>
<path d="M25.54 48H29.7967V52H25.54V48Z" fill="#C4C4C4"/>
<path d="M51.08 48H55.3367V52H51.08V48Z" fill="#C4C4C4"/>
<path d="M76.62 48H80.8767V52H76.62V48Z" fill="#C4C4C4"/>
<path d="M102.16 48H106.417V52H102.16V48Z" fill="#C4C4C4"/>
<path d="M127.7 48H131.957V52H127.7V48Z" fill="#C4C4C4"/>
<path d="M153.24 48H157.497V52H153.24V48Z" fill="#C4C4C4"/>
<path d="M0 72H4.25667V76H0V72Z" fill="#C4C4C4"/>
<path d="M25.54 72H29.7967V76H25.54V72Z" fill="#C4C4C4"/>
<path d="M51.08 72H55.3367V76H51.08V72Z" fill="#C4C4C4"/>
<path d="M76.62 72H80.8767V76H76.62V72Z" fill="#C4C4C4"/>
<path d="M102.16 72H106.417V76H102.16V72Z" fill="#C4C4C4"/>
<path d="M127.7 72H131.957V76H127.7V72Z" fill="#C4C4C4"/>
<path d="M153.24 72H157.497V76H153.24V72Z" fill="#C4C4C4"/>
<path d="M0 96H4.25667V100H0V96Z" fill="#C4C4C4"/>
<path d="M25.54 96H29.7967V100H25.54V96Z" fill="#C4C4C4"/>
<path d="M51.08 96H55.3367V100H51.08V96Z" fill="#C4C4C4"/>
<path d="M76.62 96H80.8767V100H76.62V96Z" fill="#C4C4C4"/>
<path d="M102.16 96H106.417V100H102.16V96Z" fill="#C4C4C4"/>
<path d="M127.7 96H131.957V100H127.7V96Z" fill="#C4C4C4"/>
<path d="M153.24 96H157.497V100H153.24V96Z" fill="#C4C4C4"/>
</g>
</svg>
