<svg width="72" height="72" viewBox="0 0 72 72" fill="none" xmlns="http://www.w3.org/2000/svg">
<rect width="72" height="72" rx="36" fill="#F4F5F7"/>
<path fill-rule="evenodd" clip-rule="evenodd" d="M45.416 23.7759C45.4162 23.7761 45.4164 23.7762 45.4166 23.7763L43.4442 25.7484C43.444 25.7483 43.4439 25.7482 43.4438 25.7481L42.3004 26.8915V24.2999L37.8008 24.2999L36 24.2999L34.2008 24.2999C27.739 24.2999 22.5008 29.5381 22.5008 35.9999C22.5008 38.9743 23.6107 41.6894 25.4389 43.7538L23.5269 45.6658C21.2114 43.1105 19.8008 39.7199 19.8008 35.9999C19.8008 28.047 26.2479 21.5999 34.2008 21.5999H36H37.8008H42.3004H44.1H47.592L45.416 23.7759Z" fill="url(#paint0_radial_522_1011)"/>
<path d="M42.007 39.106L38.8253 37.8676C38.8253 37.8676 38.2184 37.6329 37.9829 37.4017C37.8317 37.2527 37.8418 36.9028 37.9757 36.4542C38.1104 36.0057 39.7412 34.1833 39.7412 32.5281C39.7412 29.9721 38.0578 27.8999 35.9828 27.8999C33.9099 27.8999 32.228 29.9728 32.228 32.5281C32.228 34.1142 33.6817 36.0042 33.8609 36.3462C34.0402 36.6911 33.9963 37.2138 33.8559 37.3722C33.6435 37.6105 32.8652 37.8489 32.8652 37.8489L29.9967 39.1247C29.3264 39.3652 28.8008 39.9959 28.8008 40.7087V41.0464C28.8008 41.824 29.4322 42.2999 30.2091 42.2999H41.791C42.5672 42.2999 43.2008 41.8233 43.2008 41.0464V40.7087C43.2022 39.9959 42.6766 39.3457 42.007 39.106Z" fill="#1D2130"/>
<path d="M37.8002 47.7C44.2619 47.7 49.5002 42.4617 49.5002 36C49.5002 33.0256 48.3903 30.3104 46.562 28.2461L48.4741 26.334C50.7896 28.8894 52.2002 32.2799 52.2002 36C52.2002 43.9529 45.7531 50.4 37.8002 50.4L24.4082 50.4003L29.7002 45.1083V47.7H37.8002Z" fill="url(#paint1_radial_522_1011)"/>
<defs>
<radialGradient id="paint0_radial_522_1011" cx="0" cy="0" r="1" gradientUnits="userSpaceOnUse" gradientTransform="translate(6.04342 -38.5651) rotate(60.7856) scale(133.427 436.828)">
<stop offset="0.175497" stop-color="#D798E1"/>
<stop offset="0.275566" stop-color="#9B9FFF"/>
<stop offset="0.49892" stop-color="#AED3FF"/>
<stop offset="0.565292" stop-color="#C9D4EF"/>
<stop offset="0.656871" stop-color="#CACFFA"/>
</radialGradient>
<radialGradient id="paint1_radial_522_1011" cx="0" cy="0" r="1" gradientUnits="userSpaceOnUse" gradientTransform="translate(10.6505 -33.8317) rotate(60.7853) scale(133.429 436.838)">
<stop offset="0.175497" stop-color="#D798E1"/>
<stop offset="0.275566" stop-color="#9B9FFF"/>
<stop offset="0.49892" stop-color="#AED3FF"/>
<stop offset="0.565292" stop-color="#C9D4EF"/>
<stop offset="0.656871" stop-color="#CACFFA"/>
</radialGradient>
</defs>
</svg>
