<svg viewBox="0 0 20 18" fill="none" xmlns="http://www.w3.org/2000/svg">
<path d="M12 6.5H10L9.25938 5.38906C9.14844 5.22187 9.26719 5 9.46719 5H12.5328C12.7328 5 12.8516 5.22187 12.7406 5.38906L12 6.5ZM10 7H12C12.0594 7.03906 12.1266 7.08281 12.2031 7.13125C13.0891 7.69844 15 8.92031 15 11.5C15 12.3281 14.3281 13 13.5 13H8.5C7.67188 13 7 12.3281 7 11.5C7 8.92031 8.91094 7.69844 9.79688 7.13125C9.87188 7.08281 9.94063 7.03906 10 7ZM11.3141 8.5C11.3141 8.32656 11.1734 8.18594 11 8.18594C10.8266 8.18594 10.6859 8.32656 10.6859 8.5V8.59375C10.5984 8.6125 10.5156 8.63906 10.4375 8.67344C10.2031 8.77969 10.0016 8.97656 9.95156 9.2625C9.92344 9.42187 9.93906 9.575 10.0047 9.71562C10.0703 9.85312 10.1719 9.95 10.275 10.0203C10.4563 10.1437 10.6953 10.2156 10.8781 10.2703L10.9125 10.2812C11.1297 10.3469 11.2781 10.3969 11.3703 10.4641C11.4094 10.4922 11.4234 10.5141 11.4297 10.5281C11.4344 10.5406 11.4438 10.5688 11.4328 10.6328C11.4234 10.6875 11.3938 10.7328 11.3078 10.7703C11.2125 10.8109 11.0578 10.8313 10.8578 10.8C10.7641 10.7844 10.5969 10.7281 10.4484 10.6766C10.4141 10.6641 10.3812 10.6531 10.35 10.6438C10.1859 10.5891 10.0094 10.6781 9.95469 10.8422C9.9 11.0062 9.98906 11.1828 10.1531 11.2375C10.1719 11.2438 10.1953 11.2516 10.2219 11.2609C10.3453 11.3031 10.5391 11.3687 10.6875 11.4031V11.5C10.6875 11.6734 10.8281 11.8141 11.0016 11.8141C11.175 11.8141 11.3156 11.6734 11.3156 11.5V11.4141C11.4 11.3984 11.4797 11.375 11.5563 11.3422C11.8016 11.2375 12 11.0344 12.05 10.7375C12.0781 10.575 12.0656 10.4203 12.0031 10.2781C11.9422 10.1375 11.8437 10.0344 11.7391 9.95781C11.5484 9.82031 11.2969 9.74375 11.1078 9.68594L11.0953 9.68281C10.8734 9.61563 10.7234 9.56875 10.6281 9.50469C10.5875 9.47656 10.575 9.45781 10.5719 9.45C10.5688 9.44531 10.5609 9.425 10.5703 9.37187C10.575 9.34219 10.6 9.29063 10.6984 9.24531C10.7984 9.2 10.9547 9.175 11.1453 9.20469C11.2125 9.21563 11.425 9.25625 11.4844 9.27187C11.6516 9.31562 11.8219 9.21719 11.8672 9.05C11.9125 8.88281 11.8125 8.7125 11.6453 8.66719C11.5766 8.64844 11.4203 8.61719 11.3172 8.59844V8.5H11.3141Z" fill="currentColor"/>
<path d="M19.292 5.49664C18.8409 4.42668 18.1861 3.45465 17.364 2.63464C16.1196 1.3902 14.5377 0.537739 12.814 0.182636C11.6176 -0.0608787 10.3844 -0.0608787 9.188 0.182636C7.46267 0.535471 5.87947 1.38863 4.636 2.63564C3.81589 3.45652 3.16133 4.42749 2.708 5.49564C2.23911 6.60425 1.99832 7.79594 2 8.99964L2.001 9.02464H0L3 12.9996L6 9.02464H4.001L4 8.99964C3.99712 7.60501 4.41346 6.24171 5.195 5.08664C5.69912 4.34132 6.34095 3.69915 7.086 3.19464C7.84394 2.68404 8.69412 2.32603 9.589 2.14064C11.4075 1.76674 13.3001 2.13027 14.8507 3.15131C16.4013 4.17235 17.483 5.76733 17.858 7.58564C18.0466 8.51752 18.0466 9.47775 17.858 10.4096C17.675 11.3053 17.3168 12.1559 16.804 12.9126C16.554 13.2836 16.267 13.6326 15.95 13.9486C15.3112 14.5867 14.5558 15.0962 13.725 15.4496C13.3018 15.6285 12.862 15.7652 12.412 15.8576C11.4804 16.0461 10.5206 16.0461 9.589 15.8576C8.6943 15.6742 7.84447 15.3164 7.088 14.8046C6.71595 14.5532 6.36871 14.2669 6.051 13.9496L4.637 15.3636C5.47212 16.1999 6.46403 16.8632 7.5559 17.3155C8.64777 17.7679 9.81815 18.0003 11 17.9996C12.2031 17.9991 13.3939 17.7588 14.503 17.2926C16.1106 16.6125 17.486 15.4799 18.462 14.0326C19.4665 12.5465 20.0022 10.7934 20 8.99964C20.0025 7.79619 19.7617 6.60465 19.292 5.49664V5.49664Z" fill="currentColor"/>
</svg>
