<svg viewBox="0 0 20 18" fill="none" xmlns="http://www.w3.org/2000/svg">
<path d="M11.4911 7.16212C12.4356 7.16212 12.8384 7.56494 12.8384 8.50932H13.7366C13.7366 7.06108 12.9395 6.26399 11.4911 6.26399V7.16212ZM13.0279 9.6064C12.9416 9.52797 12.8282 9.48614 12.7117 9.48974C12.5951 9.49335 12.4845 9.5421 12.4032 9.62571L11.3286 10.7309C11.0699 10.6815 10.5498 10.5194 10.0145 9.98541C9.47916 9.44967 9.31703 8.9283 9.26898 8.67144L10.3733 7.59637C10.457 7.51515 10.5059 7.40454 10.5095 7.28795C10.5131 7.17137 10.4712 7.05796 10.3926 6.97172L8.7332 5.14716C8.65463 5.06065 8.54542 5.00817 8.42878 5.00088C8.31214 4.99358 8.19725 5.03204 8.1085 5.10809L7.13396 5.9438C7.05631 6.02172 7.00997 6.12543 7.00372 6.23525C6.99698 6.34751 6.86854 9.00689 8.93081 11.0699C10.7299 12.8684 12.9835 13 13.6041 13C13.6949 13 13.7505 12.9973 13.7654 12.9964C13.8752 12.9903 13.9788 12.9437 14.0564 12.8657L14.8917 11.8908C14.9678 11.8021 15.0064 11.6873 14.9991 11.5706C14.9919 11.454 14.9395 11.3448 14.8531 11.2662L13.0279 9.6064V9.6064Z" fill="currentColor"/>
<path d="M19.292 5.49664C18.8409 4.42668 18.1861 3.45465 17.364 2.63464C16.1196 1.3902 14.5377 0.537739 12.814 0.182636C11.6176 -0.0608787 10.3844 -0.0608787 9.188 0.182636C7.46267 0.535471 5.87947 1.38863 4.636 2.63564C3.81589 3.45652 3.16133 4.42749 2.708 5.49564C2.23911 6.60425 1.99832 7.79594 2 8.99964L2.001 9.02464H0L3 12.9996L6 9.02464H4.001L4 8.99964C3.99712 7.60501 4.41346 6.24171 5.195 5.08664C5.69912 4.34132 6.34095 3.69915 7.086 3.19464C7.84394 2.68404 8.69412 2.32603 9.589 2.14064C11.4075 1.76674 13.3001 2.13027 14.8507 3.15131C16.4013 4.17235 17.483 5.76733 17.858 7.58564C18.0466 8.51752 18.0466 9.47775 17.858 10.4096C17.675 11.3053 17.3168 12.1559 16.804 12.9126C16.554 13.2836 16.267 13.6326 15.95 13.9486C15.3112 14.5867 14.5558 15.0962 13.725 15.4496C13.3018 15.6285 12.862 15.7652 12.412 15.8576C11.4804 16.0461 10.5206 16.0461 9.589 15.8576C8.6943 15.6742 7.84447 15.3164 7.088 14.8046C6.71595 14.5532 6.36871 14.2669 6.051 13.9496L4.637 15.3636C5.47212 16.1999 6.46403 16.8632 7.5559 17.3155C8.64777 17.7679 9.81815 18.0003 11 17.9996C12.2031 17.9991 13.3939 17.7588 14.503 17.2926C16.1106 16.6125 17.486 15.4799 18.462 14.0326C19.4665 12.5465 20.0022 10.7934 20 8.99964C20.0025 7.79619 19.7617 6.60465 19.292 5.49664V5.49664Z" fill="currentColor"/>
</svg>
