<svg width="18" height="18" viewBox="0 0 18 18" fill="none" xmlns="http://www.w3.org/2000/svg">
<path d="M3 10.5H7.5V12H3V10.5ZM3 13.5H10.5V15H3V13.5Z" fill="currentColor"/>
<path d="M16.5 0H1.5C1.1023 0.000397108 0.720997 0.15856 0.439779 0.439779C0.15856 0.720997 0.000397108 1.1023 0 1.5V16.5C0.000397108 16.8977 0.15856 17.279 0.439779 17.5602C0.720997 17.8414 1.1023 17.9996 1.5 18H16.5C16.8977 17.9996 17.279 17.8414 17.5602 17.5602C17.8414 17.279 17.9996 16.8977 18 16.5V1.5C17.9996 1.1023 17.8414 0.720997 17.5602 0.439779C17.279 0.15856 16.8977 0.000397108 16.5 0V0ZM10.5 1.5V4.5H7.5V1.5H10.5ZM1.5 16.5V1.5H6V6H12V1.5H16.5L16.5007 16.5H1.5Z" fill="currentColor"/>
</svg>
