<svg width="15" height="15" viewBox="0 0 15 15" fill="none" xmlns="http://www.w3.org/2000/svg">
<path d="M14 7.0944L7.8539 12.8909C7.10095 13.6011 6.07974 14 5.01492 14C3.9501 14 2.92889 13.6011 2.17594 12.8909C1.423 12.1808 1 11.2177 1 10.2134C1 9.20917 1.423 8.24604 2.17594 7.53592L8.32205 1.73937C8.82401 1.26596 9.50481 1 10.2147 1C10.9246 1 11.6054 1.26596 12.1073 1.73937C12.6093 2.21279 12.8913 2.85487 12.8913 3.52438C12.8913 4.19389 12.6093 4.83597 12.1073 5.30939L5.95456 11.1059C5.83029 11.2231 5.68275 11.3161 5.52038 11.3795C5.35801 11.443 5.18398 11.4756 5.00823 11.4756C4.83248 11.4756 4.65846 11.443 4.49608 11.3795C4.33371 11.3161 4.18618 11.2231 4.06191 11.1059C3.93763 10.9887 3.83905 10.8496 3.7718 10.6964C3.70454 10.5433 3.66993 10.3792 3.66993 10.2134C3.66993 10.0477 3.70454 9.88354 3.7718 9.73041C3.83905 9.57727 3.93763 9.43813 4.06191 9.32092L9.73986 3.97221" stroke="black" stroke-linecap="round" stroke-linejoin="round"/>
</svg>
