<svg width="19" height="19" viewBox="0 0 19 19" fill="none" xmlns="http://www.w3.org/2000/svg">
<path d="M6.1 1H2.7C1.76112 1 1 1.76112 1 2.7V16.3C1 17.2389 1.76112 18 2.7 18H6.1C7.03888 18 7.8 17.2389 7.8 16.3V2.7C7.8 1.76112 7.03888 1 6.1 1Z" stroke="currentColor" stroke-width="2" stroke-linecap="round" stroke-linejoin="round"/>
<path d="M16.3 1H12.9C11.9611 1 11.2 1.76112 11.2 2.7V6.1C11.2 7.03888 11.9611 7.8 12.9 7.8H16.3C17.2388 7.8 18 7.03888 18 6.1V2.7C18 1.76112 17.2388 1 16.3 1Z" stroke="currentColor" stroke-width="2" stroke-linecap="round" stroke-linejoin="round"/>
<path d="M16.3 11.2H12.9C11.9611 11.2 11.2 11.9611 11.2 12.9V16.3C11.2 17.2388 11.9611 18 12.9 18H16.3C17.2388 18 18 17.2388 18 16.3V12.9C18 11.9611 17.2388 11.2 16.3 11.2Z" stroke="currentColor" stroke-width="2" stroke-linecap="round" stroke-linejoin="round"/>
</svg>
