<svg width="48" height="48" viewBox="0 0 48 48" fill="none" xmlns="http://www.w3.org/2000/svg">
<path d="M18.6602 18.1601C18.6602 17.884 18.4363 17.6601 18.1602 17.6601C17.8884 17.6704 17.6704 17.8883 17.6602 18.1601C17.6602 18.7201 18.6602 18.7201 18.6602 18.1601Z" fill="#F6F2FF"/>
<path d="M29.8398 29.34C29.5637 29.34 29.3398 29.5638 29.3398 29.84C29.3398 30.38 30.3398 30.38 30.3398 29.84C30.3398 29.5638 30.116 29.34 29.8398 29.34Z" fill="#F6F2FF"/>
<path fill-rule="evenodd" clip-rule="evenodd" d="M41.1605 16.8001C41.5526 17.5412 42.0588 18.2161 42.6605 18.8001C44.2155 20.1162 45.2098 21.976 45.4405 24.0001C45.2116 25.9739 44.2563 27.7919 42.7605 29.1001C42.1588 29.684 41.6526 30.3589 41.2605 31.1001C41.0118 31.9296 40.9036 32.7948 40.9405 33.6601C41.1077 35.6411 40.5061 37.6105 39.2605 39.1601C37.711 40.4056 35.7416 41.0072 33.7605 40.8401C32.8953 40.8031 32.03 40.9113 31.2005 41.1601C30.4628 41.5575 29.7887 42.0631 29.2005 42.6601C27.8936 44.2264 26.029 45.2233 24.0005 45.4401C22.0226 45.2244 20.2001 44.2667 18.9005 42.7601C18.3124 42.1631 17.6383 41.6575 16.9005 41.2601C16.071 41.0113 15.2058 40.9031 14.3405 40.9401C12.3595 41.1072 10.3901 40.5056 8.84055 39.2601C7.59496 37.7105 6.9934 35.7411 7.16055 33.7601C7.19747 32.8948 7.08931 32.0296 6.84055 31.2001C6.44845 30.4589 5.94227 29.784 5.34055 29.2001C3.7856 27.8839 2.79133 26.0241 2.56055 24.0001C2.7895 22.0262 3.74484 20.2082 5.24055 18.9001C5.84227 18.3161 6.34845 17.6412 6.74055 16.9001C6.98931 16.0706 7.09747 15.2053 7.06055 14.3401C6.8934 12.359 7.49496 10.3896 8.74055 8.84006C10.2901 7.59448 12.2595 6.99291 14.2405 7.16006C15.1058 7.19698 15.971 7.08882 16.8005 6.84006C17.5383 6.44262 18.2124 5.93702 18.8005 5.34006C20.1074 3.77371 21.9721 2.77682 24.0005 2.56006C25.9785 2.7757 27.801 3.73343 29.1005 5.24006C29.6887 5.83702 30.3628 6.34262 31.1005 6.74006C31.93 6.98882 32.7953 7.09698 33.6605 7.06006C35.6416 6.89291 37.611 7.49448 39.1605 8.74006C40.4061 10.2896 41.0077 12.259 40.8405 14.2401C40.8036 15.1053 40.9118 15.9706 41.1605 16.8001ZM18.1605 13.6601C15.6753 13.6601 13.6605 15.6748 13.6605 18.1601C13.6605 20.6453 15.6753 22.6601 18.1605 22.6601C20.6458 22.6601 22.6605 20.6453 22.6605 18.1601C22.6605 15.6748 20.6458 13.6601 18.1605 13.6601ZM18.7405 32.1601C18.368 32.5295 17.8652 32.7379 17.3405 32.7401C16.8134 32.6809 16.3314 32.4147 16.0005 32.0001C15.2251 31.22 15.2251 29.9601 16.0005 29.1801L29.2605 16.0001C29.6862 15.2813 30.5138 14.9028 31.336 15.0509C32.1581 15.199 32.8016 15.8425 32.9497 16.6646C33.0978 17.4868 32.7193 18.3144 32.0005 18.7401L18.7405 32.1601ZM25.3405 29.9201C25.3405 32.4053 27.3553 34.4201 29.8405 34.4201V34.3401C32.2949 34.3404 34.2969 32.374 34.3405 29.9201C34.3405 27.4348 32.3258 25.4201 29.8405 25.4201C27.3553 25.4201 25.3405 27.4348 25.3405 29.9201Z" fill="#F6F2FF"/>
</svg>
