<svg width="17" height="18" viewBox="0 0 17 18" fill="none" xmlns="http://www.w3.org/2000/svg">
<path d="M0.730963 1.48316L11.4149 0.00417471C11.4752 -0.00421031 11.5367 6.79347e-05 11.5951 0.0167195C11.6536 0.033371 11.7076 0.0620067 11.7537 0.100686C11.7997 0.139365 11.8366 0.187184 11.8619 0.240902C11.8872 0.294619 11.9003 0.35298 11.9003 0.41203V17.5881C11.9002 17.6471 11.8872 17.7053 11.8619 17.759C11.8367 17.8126 11.7999 17.8604 11.7539 17.8991C11.708 17.9377 11.654 17.9664 11.5957 17.9831C11.5374 17.9998 11.476 18.0042 11.4158 17.9959L0.730114 16.517C0.5275 16.489 0.342101 16.3911 0.207975 16.2412C0.0738487 16.0914 1.96389e-06 15.8996 0 15.7012V2.29887C1.96389e-06 2.10048 0.0738487 1.90874 0.207975 1.75889C0.342101 1.60904 0.5275 1.51114 0.730114 1.48316H0.730963ZM1.70076 3.01406V14.9861L10.2003 16.1635V1.83664L1.70076 3.01406ZM12.7502 14.7677H15.3001V3.23241H12.7502V1.58451H16.15C16.3755 1.58451 16.5917 1.67132 16.7511 1.82584C16.9105 1.98036 17 2.18994 17 2.40846V15.5917C17 15.8102 16.9105 16.0198 16.7511 16.1743C16.5917 16.3288 16.3755 16.4156 16.15 16.4156H12.7502V14.7677ZM6.9705 9.00006L9.35038 12.2959H7.31049L5.95055 10.4123L4.59062 12.2959H2.55072L4.9306 9.00006L2.55072 5.70426H4.59062L5.95055 7.58781L7.31049 5.70426H9.35038L6.9705 9.00006Z" fill="currentColor"/>
</svg>
