<svg width="16" height="16" viewBox="0 0 16 16" fill="none" xmlns="http://www.w3.org/2000/svg">
<path d="M2.4 12.8V15.8128L3.612 15.0856L7.4216 12.8H11.2C12.0824 12.8 12.8 12.0824 12.8 11.2V4.80001C12.8 3.91761 12.0824 3.20001 11.2 3.20001H1.6C0.7176 3.20001 0 3.91761 0 4.80001V11.2C0 12.0824 0.7176 12.8 1.6 12.8H2.4ZM1.6 4.80001H11.2V11.2H6.9784L4 12.9872V11.2H1.6V4.80001Z" fill="currentColor"/>
<path d="M14.4 0H4.80001C3.91761 0 3.20001 0.7176 3.20001 1.6H12.8C13.6824 1.6 14.4 2.3176 14.4 3.2V9.6C15.2824 9.6 16 8.8824 16 8V1.6C16 0.7176 15.2824 0 14.4 0Z" fill="currentColor"/>
</svg>
