<svg width="22" height="20" viewBox="0 0 22 20" fill="none" xmlns="http://www.w3.org/2000/svg">
<path fill-rule="evenodd" clip-rule="evenodd" d="M10.55 1.84999C15.0806 1.84999 18.7 5.46944 18.7 9.99999C18.7 10.9993 18.518 11.9914 18.1608 12.8843C18.0778 13.0919 18.0799 13.3238 18.1666 13.5298L19.2698 16.15H16.15C15.957 16.15 15.7697 16.2157 15.619 16.3363C14.2548 17.4277 12.4387 18.15 10.55 18.15C6.01945 18.15 2.40001 14.5306 2.40001 9.99999C2.40001 5.46944 6.01945 1.84999 10.55 1.84999ZM20.4 9.99999C20.4 4.53055 16.0195 0.149994 10.55 0.149994C5.08057 0.149994 0.700012 4.53055 0.700012 9.99999C0.700012 15.4694 5.08057 19.85 10.55 19.85C12.7499 19.85 14.8343 19.0549 16.4406 17.85H20.2488C20.9997 17.85 21.5079 17.0846 21.2165 16.3925L19.8648 13.1822C20.2233 12.1682 20.4 11.0812 20.4 9.99999ZM6.55003 9.35001C5.9149 9.35001 5.40003 9.86488 5.40003 10.5C5.40003 11.1351 5.9149 11.65 6.55003 11.65C7.18516 11.65 7.70003 11.1351 7.70003 10.5C7.70003 9.86488 7.18516 9.35001 6.55003 9.35001ZM10.55 9.35001C9.9149 9.35001 9.40003 9.86488 9.40003 10.5C9.40003 11.1351 9.9149 11.65 10.55 11.65C11.1852 11.65 11.7 11.1351 11.7 10.5C11.7 9.86488 11.1852 9.35001 10.55 9.35001ZM14.55 9.35001C13.9149 9.35001 13.4 9.86488 13.4 10.5C13.4 11.1351 13.9149 11.65 14.55 11.65C15.1852 11.65 15.7 11.1351 15.7 10.5C15.7 9.86488 15.1852 9.35001 14.55 9.35001Z" fill="currentColor"/>
</svg>
