<svg width="18" height="19" viewBox="0 0 18 19" fill="none" xmlns="http://www.w3.org/2000/svg">
<path fill-rule="evenodd" clip-rule="evenodd" d="M2.71431 1.84999C2.51316 1.84999 2.30143 1.93731 2.13155 2.12448C1.95919 2.3144 1.85002 2.58818 1.85002 2.88888V16.1111C1.85002 16.4118 1.95919 16.6856 2.13155 16.8755C2.30143 17.0627 2.51316 17.15 2.71431 17.15H12.15V8.99999V2.88888C12.15 2.58818 12.0409 2.3144 11.8685 2.12448C11.6986 1.93731 11.4869 1.84999 11.2857 1.84999H2.71431ZM2.71431 18.85H13H15C15.7559 18.85 16.4808 18.5497 17.0153 18.0152C17.5498 17.4808 17.85 16.7559 17.85 16V8.99999C17.85 8.53055 17.4695 8.14999 17 8.14999H13.85V2.88888C13.85 2.18766 13.598 1.50055 13.1273 0.981991C12.6542 0.460697 11.9939 0.149994 11.2857 0.149994H2.71431C2.00615 0.149994 1.34581 0.460697 0.872699 0.981991C0.402078 1.50055 0.150024 2.18766 0.150024 2.88888V16.1111C0.150024 16.8123 0.402078 17.4994 0.872699 18.018C1.34581 18.5393 2.00615 18.85 2.71431 18.85ZM13.85 17.15V9.84999H16.15V16C16.15 16.305 16.0289 16.5975 15.8132 16.8132C15.5975 17.0288 15.305 17.15 15 17.15H13.85ZM5.00002 5.14999C4.53058 5.14999 4.15002 5.53055 4.15002 5.99999C4.15002 6.46944 4.53058 6.84999 5.00002 6.84999H9.00002C9.46947 6.84999 9.85003 6.46944 9.85003 5.99999C9.85003 5.53055 9.46947 5.14999 9.00002 5.14999H5.00002ZM4.15002 8.99999C4.15002 8.53055 4.53058 8.14999 5.00002 8.14999H9.00002C9.46947 8.14999 9.85003 8.53055 9.85003 8.99999C9.85003 9.46944 9.46947 9.84999 9.00002 9.84999H5.00002C4.53058 9.84999 4.15002 9.46944 4.15002 8.99999ZM5.00002 12.15C4.53058 12.15 4.15002 12.5306 4.15002 13C4.15002 13.4694 4.53058 13.85 5.00002 13.85H8.00002C8.46947 13.85 8.85002 13.4694 8.85002 13C8.85002 12.5306 8.46947 12.15 8.00002 12.15H5.00002Z" fill="currentColor"/>
</svg>
