<svg width="15" height="17" viewBox="0 0 15 17" fill="none" xmlns="http://www.w3.org/2000/svg">
<path d="M12.5324 1.27595V15.7241C12.5324 16.4261 11.9652 17 11.2609 17H1.97777C1.27822 17 0.706299 16.4308 0.706299 15.7241V4.13142L4.82321 0H11.2562C11.9652 0 12.5324 0.569196 12.5324 1.27595Z" fill="#5A6474"/>
<path d="M12.5324 1.27595V15.7241C12.5324 16.4261 11.9652 17 11.2609 17H1.97777C1.27822 17 0.706299 16.4308 0.706299 15.7241V4.13142L4.82321 0H11.2562C11.9652 0 12.5324 0.569196 12.5324 1.27595Z" fill="white" fill-opacity="0.8"/>
<path d="M0.706299 4.4297L4.40195 0V3.0718C4.40195 3.82449 3.89279 4.43478 3.26483 4.43478H0.706299V4.4297Z" fill="#5A6474"/>
<path d="M0.706299 4.4297L4.40195 0V3.0718C4.40195 3.82449 3.89279 4.43478 3.26483 4.43478H0.706299V4.4297Z" fill="white" fill-opacity="0.6"/>
<path d="M12.5324 11.0869V15.5217H4.62626L1.95936 14.7931H0.706299V11.8155H1.95936V11.8107L4.62626 11.0869H12.5324Z" fill="#5A6474"/>
<path d="M12.5324 11.0869V15.5217H4.62626L1.95936 14.7931H0.706299V11.8155H1.95936V11.8107L4.62626 11.0869H12.5324Z" fill="white" fill-opacity="0.6"/>
<path d="M13.6997 14.4747H4.56177V10.3613H13.6997C14.2599 10.3613 14.7166 10.7983 14.7166 11.3345V13.5016C14.7166 14.0377 14.2646 14.4747 13.6997 14.4747Z" fill="#E95935"/>
<path d="M4.56171 14.4747L1.90649 13.7989V11.0326L4.56171 10.3613V14.4747Z" fill="#E94921"/>
<path d="M1.90667 11.0371H0V13.8034H1.90667V11.0371Z" fill="#E95935"/>
<path d="M0 11.0371L0.659097 10.6587V11.0371H0Z" fill="#C43E1C"/>
<path d="M0 13.7991L0.659097 14.1775V13.7991H0Z" fill="#C43E1C"/>
<path d="M6.65552 13.9232V11.1301H7.51714C7.6209 11.1301 7.71563 11.1349 7.79683 11.1397C7.87803 11.1445 7.95021 11.1588 8.01337 11.1732C8.07652 11.1923 8.13517 11.2114 8.18479 11.2401C8.23441 11.2688 8.28403 11.2975 8.32914 11.3406C8.42839 11.4266 8.50508 11.5366 8.55921 11.661C8.61335 11.7901 8.64041 11.9288 8.64041 12.0819C8.64041 12.2253 8.61335 12.3593 8.56372 12.4884C8.5141 12.6175 8.44643 12.7227 8.36072 12.8088C8.2705 12.8997 8.16674 12.9619 8.04946 12.9953C7.93217 13.0336 7.77879 13.048 7.58932 13.048H7.30061V13.9232H6.65552ZM7.30061 12.4214H7.57128C7.85097 12.4214 7.99081 12.3114 7.99081 12.0914C7.99081 11.9719 7.95472 11.8906 7.88705 11.838C7.81939 11.7853 7.7021 11.7614 7.54421 11.7614H7.30061V12.4214Z" fill="white"/>
<path d="M8.93823 13.9232V11.1301H9.82241C9.92166 11.1301 10.0119 11.1349 10.0886 11.1397C10.1653 11.1445 10.2374 11.1588 10.3006 11.1732C10.3637 11.1875 10.4269 11.2114 10.481 11.2353C10.5397 11.264 10.5938 11.2927 10.6479 11.331C10.7697 11.4123 10.878 11.5175 10.9682 11.6514C11.1306 11.8906 11.2073 12.1775 11.2073 12.5123C11.2073 12.7227 11.1758 12.9188 11.1171 13.091C11.0585 13.2632 10.9727 13.4114 10.8645 13.5358C10.7562 13.6601 10.6254 13.7558 10.472 13.8227C10.3186 13.8897 10.1472 13.9232 9.96226 13.9232H8.93823ZM9.61039 13.2966H9.8991C10.1111 13.2966 10.269 13.2297 10.3773 13.1006C10.4855 12.9714 10.5397 12.7849 10.5397 12.5362C10.5397 12.2827 10.4855 12.0914 10.3728 11.9575C10.26 11.8236 10.1021 11.7566 9.8991 11.7566H9.60588V13.2966H9.61039Z" fill="white"/>
<path d="M11.5544 13.9232V11.1301H12.9935V11.7566H12.1995V12.2301H12.9664V12.8566H12.1995V13.9184H11.5544V13.9232Z" fill="white"/>
</svg>
