<svg width="36" height="36" viewBox="0 0 36 36" fill="none" xmlns="http://www.w3.org/2000/svg">
<circle cx="18" cy="18" r="18" fill="#040000"/>
<path fill-rule="evenodd" clip-rule="evenodd" d="M18 33.3C26.4499 33.3 33.3 26.4499 33.3 18C33.3 9.55015 26.4499 2.7 18 2.7C9.55015 2.7 2.7 9.55015 2.7 18C2.7 26.4499 9.55015 33.3 18 33.3ZM18 35C27.3891 35 35 27.3891 35 18C35 8.6109 27.3891 1 18 1C8.6109 1 1 8.6109 1 18C1 27.3891 8.6109 35 18 35Z" fill="white"/>
<path d="M7.80029 27.8855C7.80029 27.0074 8.45649 26.2654 9.33029 26.1685C15.888 25.4426 20.1423 25.508 26.6856 26.1846C27.0123 26.2189 27.322 26.3476 27.5768 26.5551C27.8316 26.7625 28.0205 27.0396 28.1204 27.3526C28.2203 27.6656 28.2268 28.0009 28.1393 28.3176C28.0517 28.6342 27.8739 28.9186 27.6274 29.1358C19.9051 35.867 15.4919 35.7743 8.34429 29.1426C7.99579 28.8196 7.80029 28.3606 7.80029 27.8863V27.8855Z" fill="white"/>
<path fill-rule="evenodd" clip-rule="evenodd" d="M26.5975 27.0293C20.106 26.3578 15.913 26.2949 9.42236 27.0132C9.20871 27.0381 9.01175 27.1409 8.86918 27.302C8.72662 27.4631 8.64848 27.671 8.64971 27.8861C8.64971 28.1292 8.75086 28.3596 8.92171 28.5194C12.4645 31.8055 15.1488 33.2904 17.7728 33.2998C20.4061 33.3091 23.2349 31.8361 27.0684 28.4956C27.1901 28.3872 27.2778 28.2457 27.3207 28.0885C27.3636 27.9312 27.3599 27.7648 27.31 27.6096C27.2602 27.4543 27.1663 27.317 27.0398 27.2141C26.9133 27.1112 26.7596 27.0474 26.5975 27.0302V27.0293ZM9.23621 25.3234C15.8628 24.5898 20.1791 24.6561 26.7734 25.3387C27.265 25.39 27.7309 25.5835 28.1142 25.8955C28.4974 26.2076 28.7814 26.6246 28.9313 27.0955C29.0812 27.5665 29.0906 28.0709 28.9582 28.5471C28.8259 29.0233 28.5576 29.4505 28.1861 29.7765C24.2974 33.1663 21.0589 35.0125 17.7677 34.9998C14.4671 34.9879 11.3714 33.1102 7.76656 29.7655C7.50846 29.5251 7.30271 29.234 7.16216 28.9105C7.02162 28.587 6.94929 28.238 6.94971 27.8853C6.94847 27.2516 7.18108 26.6396 7.60299 26.1668C8.0249 25.6939 8.60644 25.3933 9.23621 25.3225V25.3234Z" fill="white"/>
<path d="M24.7997 14.5998C24.7997 16.4033 24.0833 18.1329 22.808 19.4081C21.5328 20.6834 19.8032 21.3998 17.9997 21.3998C16.1962 21.3998 14.4666 20.6834 13.1914 19.4081C11.9161 18.1329 11.1997 16.4033 11.1997 14.5998C11.1997 12.7963 11.9161 11.0667 13.1914 9.79148C14.4666 8.51623 16.1962 7.7998 17.9997 7.7998C19.8032 7.7998 21.5328 8.51623 22.808 9.79148C24.0833 11.0667 24.7997 12.7963 24.7997 14.5998V14.5998Z" fill="white"/>
<path fill-rule="evenodd" clip-rule="evenodd" d="M17.9997 19.6998C19.3523 19.6998 20.6495 19.1625 21.606 18.206C22.5624 17.2496 23.0997 15.9524 23.0997 14.5998C23.0997 13.2472 22.5624 11.95 21.606 10.9936C20.6495 10.0371 19.3523 9.4998 17.9997 9.4998C16.6471 9.4998 15.3499 10.0371 14.3935 10.9936C13.437 11.95 12.8997 13.2472 12.8997 14.5998C12.8997 15.9524 13.437 17.2496 14.3935 18.206C15.3499 19.1625 16.6471 19.6998 17.9997 19.6998V19.6998ZM17.9997 21.3998C19.8032 21.3998 21.5328 20.6834 22.808 19.4081C24.0833 18.1329 24.7997 16.4033 24.7997 14.5998C24.7997 12.7963 24.0833 11.0667 22.808 9.79148C21.5328 8.51623 19.8032 7.7998 17.9997 7.7998C16.1962 7.7998 14.4666 8.51623 13.1914 9.79148C11.9161 11.0667 11.1997 12.7963 11.1997 14.5998C11.1997 16.4033 11.9161 18.1329 13.1914 19.4081C14.4666 20.6834 16.1962 21.3998 17.9997 21.3998V21.3998Z" fill="white"/>
</svg>
