<svg width="48" height="48" viewBox="0 0 48 48" fill="none" xmlns="http://www.w3.org/2000/svg">
<g id="Icon">
<g id="Iconography">
<g id="Group">
<g id="Layer_99">
<path id="Path" d="M43.8732 10.28V25.66C43.8848 27.5222 43.0745 29.2941 41.6597 30.5C40.5992 31.3814 39.268 31.8689 37.8907 31.88C37.559 31.9098 37.2254 31.9098 36.8937 31.88L17.9492 28.46V7.50004L36.8937 4.14004C38.5958 3.84552 40.3407 4.32146 41.6597 5.44004C43.0678 6.65104 43.8767 8.41967 43.8732 10.28V10.28Z" fill="#F6F2FF"/>
<path id="Path_2" d="M13.96 8.19995V27.76L11.9658 27.4L9.97167 27.06L8.9746 26.88C7.86422 26.6981 6.82747 26.206 5.98337 25.46C4.68994 24.2354 3.96676 22.5237 3.98922 20.74V15.22C3.93743 12.2284 6.04315 9.63501 8.9746 9.07995L13.96 8.19995Z" fill="#F6F2FF"/>
<path id="Path_3" d="M15.9546 28.12V39C15.9546 41.7614 13.7225 44 10.9692 44C8.21585 44 5.98382 41.7614 5.98382 39V26C5.95331 25.8213 5.95331 25.6387 5.98382 25.46C6.80573 26.1927 7.81311 26.684 8.89528 26.88L9.89235 27.06L11.8865 27.4L15.9546 28.12Z" fill="#F6F2FF"/>
</g>
</g>
</g>
</g>
</svg>
