<svg width="72" height="72" viewBox="0 0 72 72" fill="none" xmlns="http://www.w3.org/2000/svg">
<rect width="72" height="72" rx="36" fill="#F4F5F7"/>
<path fill-rule="evenodd" clip-rule="evenodd" d="M33.5059 35.4341C30.7152 34.2935 28.75 31.5523 28.75 28.35C28.75 24.1233 32.1734 20.7 36.4 20.7C40.6266 20.7 44.05 24.1233 44.05 28.35C44.05 31.5521 42.0851 34.2931 39.2947 35.4338C41.9806 36.0651 44.3353 37.5558 46.0525 39.5999H41.723L41.5742 39.604C40.1957 39.6801 39.1016 40.808 39.1016 42.1883V47.6999H23.8008C23.8008 41.7373 27.9425 36.7421 33.5059 35.4341ZM40.4429 30.1973C39.9768 32.0214 38.3112 33.3 36.4012 33.3C34.4911 33.3 32.8255 32.0214 32.3594 30.1973L34.3797 29.7C34.6105 30.6145 35.4443 31.2565 36.4012 31.2565C37.3581 31.2565 38.1919 30.6145 38.4226 29.7L40.4429 30.1973Z" fill="#1D2130"/>
<path fill-rule="evenodd" clip-rule="evenodd" d="M40.9004 42.9144C40.9004 42.0779 41.5784 41.3999 42.4148 41.3999H53.7859C54.6223 41.3999 55.3004 42.0779 55.3004 42.9144V49.1115C55.3004 49.9479 54.6223 50.6259 53.7859 50.6259H42.4148C41.5784 50.6259 40.9004 49.9479 40.9004 49.1115V42.9144ZM45.1914 50.626H51.0068C50.6333 50.626 49.72 51.2426 49.0157 51.7629C48.483 52.1565 47.74 52.1269 47.2218 51.7145C46.5816 51.2051 45.7344 50.626 45.1914 50.626ZM44.7075 46.9355C45.2428 46.9355 45.6767 46.5225 45.6767 46.0129C45.6767 45.5034 45.2428 45.0903 44.7075 45.0903C44.1722 45.0903 43.7383 45.5034 43.7383 46.0129C43.7383 46.5225 44.1722 46.9355 44.7075 46.9355ZM48.1001 46.9355C48.6354 46.9355 49.0693 46.5225 49.0693 46.0129C49.0693 45.5034 48.6354 45.0903 48.1001 45.0903C47.5648 45.0903 47.1309 45.5034 47.1309 46.0129C47.1309 46.5225 47.5648 46.9355 48.1001 46.9355ZM52.4619 46.0129C52.4619 46.5225 52.028 46.9355 51.4927 46.9355C50.9574 46.9355 50.5234 46.5225 50.5234 46.0129C50.5234 45.5034 50.9574 45.0903 51.4927 45.0903C52.028 45.0903 52.4619 45.5034 52.4619 46.0129Z" fill="url(#paint0_radial_522_1028)"/>
<defs>
<radialGradient id="paint0_radial_522_1028" cx="0" cy="0" r="1" gradientUnits="userSpaceOnUse" gradientTransform="translate(33.772 14.7956) rotate(56.7643) scale(61.5658 216.908)">
<stop offset="0.175497" stop-color="#D798E1"/>
<stop offset="0.275566" stop-color="#9B9FFF"/>
<stop offset="0.49892" stop-color="#AED3FF"/>
<stop offset="0.565292" stop-color="#C9D4EF"/>
<stop offset="0.656871" stop-color="#CACFFA"/>
</radialGradient>
</defs>
</svg>
