<svg width="19" height="17" viewBox="0 0 19 17" fill="none" xmlns="http://www.w3.org/2000/svg">
<path d="M18.3859 5.98618L12.6901 5.21059L10.1439 0.374144C10.0743 0.241725 9.95993 0.134529 9.8186 0.0693701C9.46415 -0.0945772 9.03343 0.0420455 8.85621 0.374144L6.31002 5.21059L0.614191 5.98618C0.457157 6.0072 0.313583 6.07656 0.20366 6.18166C0.0707685 6.30964 -0.00246073 6.48181 6.31408e-05 6.66035C0.00258702 6.83888 0.0806575 7.00918 0.21712 7.13381L4.33813 10.8983L3.36452 16.214C3.34169 16.3376 3.35629 16.4648 3.40668 16.5811C3.45706 16.6973 3.54121 16.7981 3.64958 16.8718C3.75795 16.9456 3.8862 16.9894 4.0198 16.9983C4.1534 17.0072 4.28699 16.9809 4.40543 16.9223L9.50004 14.4127L14.5947 16.9223C14.7337 16.9917 14.8953 17.0148 15.0501 16.9896C15.4404 16.9265 15.7029 16.5797 15.6356 16.214L14.662 10.8983L18.783 7.13381C18.8951 7.03082 18.9692 6.8963 18.9916 6.74917C19.0522 6.38134 18.7785 6.04083 18.3859 5.98618Z" fill="currentColor"/>
</svg>
