<svg  viewBox="0 0 3 11" fill="none" xmlns="http://www.w3.org/2000/svg">
<path d="M3 1.5C3 2.32843 2.32843 3 1.5 3C0.671573 3 0 2.32843 0 1.5C0 0.671573 0.671573 0 1.5 0C2.32843 0 3 0.671573 3 1.5Z" fill="#333333"/>
<path d="M3 5.5C3 6.32843 2.32843 7 1.5 7C0.671573 7 0 6.32843 0 5.5C0 4.67157 0.671573 4 1.5 4C2.32843 4 3 4.67157 3 5.5Z" fill="#333333"/>
<path d="M3 9.5C3 10.3284 2.32843 11 1.5 11C0.671573 11 0 10.3284 0 9.5C0 8.67157 0.671573 8 1.5 8C2.32843 8 3 8.67157 3 9.5Z" fill="#333333"/>
</svg>
